<?xml version="1.0" encoding="utf-8"?>
<svg width="319px" height="167px" viewBox="0 0 319 167" version="1.1" xmlns:xlink="http://www.w3.org/1999/xlink" xmlns="http://www.w3.org/2000/svg">
  <desc>Created with Lunacy</desc>
  <defs>
    <rect width="319" height="167" id="artboard_1" />
    <clipPath id="clip_1">
      <use xlink:href="#artboard_1" clip-rule="evenodd" />
    </clipPath>
  </defs>
  <g id="Artboard" clip-path="url(#clip_1)">
    <use xlink:href="#artboard_1" stroke="none" fill="#FFFFFF" />
    <g id="Foodinii" fill="#FF8080" transform="translate(19 28)">
      <path d="M88.0918 60.6074Q88.0918 60.3965 88.0215 60.3965Q87.9512 60.3965 87.2129 60.7305Q86.4746 61.0645 84.998 61.5918Q83.5215 62.1191 81.2715 62.8047Q79.0215 63.4902 75.8574 64.2285Q78.1777 60.6426 80.4453 57.25Q82.7129 53.8574 84.752 50.8164Q86.791 47.7754 88.5137 45.1914Q90.2363 42.6074 91.502 40.6914Q92.7676 38.7754 93.4883 37.5977Q94.209 36.4199 94.209 36.209Q94.1738 35.6816 93.7871 34.8555Q93.4004 34.0293 92.7852 33.1152Q92.1699 32.2012 91.3965 31.2871Q90.623 30.373 89.832 29.6348Q89.041 28.8965 88.25 28.4395Q87.459 27.9824 86.8613 27.9824Q84.7871 27.9824 81.6055 28.668Q78.4238 29.3535 74.6621 30.5488Q70.9004 31.7441 66.7871 33.4141Q62.6738 35.084 58.7012 37.0527Q54.7285 39.0215 51.1426 41.2363Q47.5566 43.4512 44.832 45.7363Q42.1074 48.0215 40.5078 50.3242Q38.9082 52.627 38.9082 54.7715Q38.9082 55.123 39.3125 55.8789Q39.7168 56.6348 40.3496 57.5313Q40.9824 58.4277 41.7559 59.3945Q42.5293 60.3613 43.2676 61.1699Q44.0059 61.9785 44.6211 62.5059Q45.2363 63.0332 45.5527 63.0684Q45.6582 63.0684 45.7813 63.1035Q45.9043 63.1387 46.1152 63.1387Q48.0488 63.1387 49.7539 63.0156Q51.459 62.8926 52.8125 62.6992Q54.166 62.5059 55.1152 62.2773Q56.0645 62.0488 56.4863 61.8379Q56.4863 61.2051 56.4336 60.2031Q56.3809 59.2012 56.3281 58.1113Q56.2754 57.0215 56.2227 55.9492Q56.1699 54.877 56.1348 54.0684Q55.1152 54.5957 53.9199 55.1758Q52.7246 55.7559 51.4414 56.248Q50.1582 56.7402 48.875 57.0566Q47.5918 57.373 46.4668 57.373Q45.9395 57.373 45.8516 57.1797Q45.7637 56.9863 45.7637 56.8809Q45.7637 56.6699 46.8184 55.4043Q47.873 54.1387 50.0879 52.1875Q52.3027 50.2363 55.7305 47.8105Q59.1582 45.3848 63.8691 42.8359Q68.5801 40.2871 74.627 37.791Q80.6738 35.2949 88.1621 33.2559Q88.584 33.1152 88.707 33.3262Q88.8301 33.5371 88.8301 33.748Q88.8301 34.2051 88.6895 34.3457Q82.502 41.7637 76.4902 49.5684Q70.4785 57.373 64.748 66.2676Q62.5332 66.584 60.0898 66.8652Q57.6465 67.1465 54.9043 67.3926Q54.623 67.4629 54.1133 68.043Q53.6035 68.623 53.1289 69.3789Q52.6543 70.1348 52.3027 70.873Q51.9512 71.6113 51.9512 71.998Q51.9512 72.2793 52.1621 72.2793Q52.3027 72.2793 53.0762 72.2266Q53.8496 72.1738 55.0801 72.1035Q56.3105 72.0332 57.9277 71.9102Q59.5449 71.7871 61.373 71.6465Q57.8574 77.4121 54.5 83.6523Q51.1426 89.8926 47.8379 96.959Q48.4004 96.7832 49.8066 96.502Q51.2129 96.2207 52.8477 95.9043Q54.4824 95.5879 55.9941 95.2539Q57.5059 94.9199 58.2793 94.6035Q59.334 92.1777 60.793 89.3652Q62.252 86.5527 63.9746 83.5117Q65.6973 80.4707 67.6484 77.2363Q69.5996 74.002 71.6738 70.7324Q73.4316 70.5566 75.0488 70.3633Q76.666 70.1699 78.0547 69.9941Q79.4434 69.8184 80.5332 69.625Q81.623 69.4316 82.3262 69.2559Q83.6973 68.0254 84.7695 66.6543Q85.8418 65.2832 86.5801 64.0527Q87.3184 62.8223 87.7051 61.8906Q88.0918 60.959 88.0918 60.6074ZM157.068 79.7676Q156.506 79.7676 156.506 78.8887Q156.506 76.252 157.121 73Q157.736 69.748 158.791 66.1621Q161.287 63.5605 163.766 60.7832Q166.244 58.0059 168.494 55.2109Q170.744 52.416 172.695 49.709Q174.646 47.002 176.07 44.5234Q177.494 42.0449 178.303 39.9004Q179.111 37.7559 179.111 36.1387Q178.971 35.6113 178.426 34.8379Q177.881 34.0645 177.107 33.3438Q176.334 32.6231 175.473 32.1133Q174.611 31.6035 173.838 31.6035Q172.08 31.9199 170.129 33.3262Q168.178 34.7324 166.174 37Q164.17 39.2676 162.166 42.2031Q160.162 45.1387 158.316 48.4961Q156.471 51.8535 154.836 55.4922Q153.201 59.1309 151.936 62.752Q151.268 62.3652 150.494 61.9961Q149.721 61.627 149.229 61.5566Q146.627 62.3652 144.342 63.7188Q142.057 65.0723 140.158 66.7422Q138.26 68.4121 136.766 70.293Q135.712 71.6189 134.886 72.9448Q133.5 74.2273 132.195 74.8984Q130.385 75.8301 128.275 75.9707Q129.189 74.4941 129.734 72.9824Q130.279 71.4707 130.279 69.959Q130.174 69.7129 129.734 69.0801Q129.295 68.4473 128.715 67.6914Q128.135 66.9355 127.555 66.2148Q126.975 65.4941 126.623 65.0723L126.412 65.2832Q125.568 66.0918 124.865 67.0234Q124.162 67.9551 123.67 68.7637Q123.072 69.6777 122.65 70.627Q122.018 71.8574 121.859 72.8242Q121.701 73.791 121.701 74.4941Q121.701 74.7402 121.719 75.0391Q121.736 75.3379 121.807 75.7246Q120.365 77.6934 119.029 78.9766Q117.693 80.2598 116.885 80.2598Q116.111 80.2598 116.111 79.2051Q116.111 77.9395 116.779 75.6367Q117.447 73.334 119.346 70.4863Q120.611 68.5527 121.666 67.375Q122.721 66.1973 123.494 65.5645Q124.268 64.9316 124.725 64.668Q125.182 64.4043 125.252 64.2285Q125.252 64.0879 124.936 63.6484Q124.619 63.209 124.145 62.752Q123.67 62.2949 123.125 61.9258Q122.58 61.5566 122.088 61.5566Q121.912 61.5566 121.648 61.5918Q121.385 61.627 121.279 61.6973Q118.01 62.6113 115.637 64.3691Q113.264 66.127 111.734 68.4297Q110.205 70.7324 109.484 73.3691Q109.324 73.9546 109.2 74.5419Q108.883 74.7377 108.57 74.8984Q106.76 75.8301 104.65 75.9707Q105.564 74.4941 106.109 72.9824Q106.654 71.4707 106.654 69.959Q106.549 69.7129 106.109 69.0801Q105.67 68.4473 105.09 67.6914Q104.51 66.9355 103.93 66.2148Q103.35 65.4941 102.998 65.0723L102.787 65.2832Q101.943 66.0918 101.24 67.0234Q100.537 67.9551 100.045 68.7637Q99.4473 69.6777 99.0254 70.627Q98.3926 71.8574 98.2344 72.8242Q98.0762 73.791 98.0762 74.4941Q98.0762 74.7402 98.0938 75.0391Q98.1113 75.3379 98.1816 75.7246Q96.7402 77.6934 95.4043 78.9766Q94.0684 80.2598 93.2598 80.2598Q92.4863 80.2598 92.4863 79.2051Q92.4863 77.9395 93.1543 75.6367Q93.8223 73.334 95.7207 70.4863Q96.9863 68.5527 98.041 67.375Q99.0957 66.1973 99.8691 65.5645Q100.643 64.9316 101.1 64.668Q101.557 64.4043 101.627 64.2285Q101.627 64.0879 101.311 63.6484Q100.994 63.209 100.52 62.752Q100.045 62.2949 99.5 61.9258Q98.9551 61.5566 98.4629 61.5566Q98.2871 61.5566 98.0234 61.5918Q97.7598 61.627 97.6543 61.6973Q94.3848 62.6113 92.0117 64.3691Q89.6387 66.127 88.1094 68.4297Q86.5801 70.7324 85.8594 73.3691Q85.1387 76.0059 85.1387 78.6777Q85.1387 79.4863 85.7363 80.541Q86.334 81.5957 87.248 82.5273Q88.1621 83.459 89.2871 84.0918Q90.4121 84.7246 91.4668 84.7246Q92.7324 84.7246 94.1387 84.3027Q95.5449 83.8809 96.9688 83.1074Q98.3926 82.334 99.7637 81.2793Q101.135 80.2246 102.33 78.959Q103.877 78.959 105.354 78.6953Q106.83 78.4316 108.254 77.834Q108.524 77.7207 108.793 77.5923Q108.764 78.1344 108.764 78.6777Q108.764 79.4863 109.361 80.541Q109.959 81.5957 110.873 82.5273Q111.787 83.459 112.912 84.0918Q114.037 84.7246 115.092 84.7246Q116.357 84.7246 117.764 84.3027Q119.17 83.8809 120.594 83.1074Q122.018 82.334 123.389 81.2793Q124.76 80.2246 125.955 78.959Q127.502 78.959 128.979 78.6953Q130.455 78.4316 131.879 77.834Q132.31 77.6532 132.74 77.4339Q132.695 77.5729 132.652 77.7109Q132.107 79.4863 132.107 80.9277Q132.107 81.5605 132.494 82.2461Q132.881 82.9316 133.408 83.4766Q133.936 84.0215 134.498 84.373Q135.061 84.7246 135.412 84.7246Q135.799 84.7246 136.326 84.5137Q138.084 83.8457 139.648 82.9141Q141.213 81.9824 142.707 80.875Q144.201 79.7676 145.678 78.502Q147.154 77.2363 148.736 75.8301Q148.525 77.5879 148.525 79.2051Q148.525 79.9434 149.105 80.875Q149.686 81.8066 150.529 82.6504Q151.373 83.4941 152.287 84.0742Q153.201 84.6543 153.834 84.6543Q155.029 84.6543 156.365 84.127Q157.701 83.5996 159.107 82.7383Q160.514 81.877 161.938 80.7695Q163.361 79.6621 164.68 78.4844Q165.433 77.8114 166.135 77.1558Q166.101 77.2681 166.068 77.377Q165.471 79.3809 165.119 80.9277Q165.119 81.5605 165.646 82.2285Q166.174 82.8965 166.912 83.4414Q167.65 83.9863 168.459 84.3555Q169.268 84.7246 169.795 84.7246Q170.639 84.7246 171.834 84.1621Q173.029 83.5996 174.4 82.6855Q175.771 81.7715 177.23 80.6113Q178.689 79.4512 180.043 78.291Q180.32 78.0532 180.59 77.8176Q180.262 79.217 180.078 80.1543Q179.885 81.1387 179.885 81.3496Q180.518 82.0176 181.309 82.6855Q182.1 83.3535 182.891 83.8984Q183.682 84.4434 184.438 84.7773Q185.193 85.1113 185.791 85.1113Q186.283 85.1113 186.459 84.8301Q186.635 84.5488 186.846 84.0566Q188.533 80.084 190.291 77.1836Q192.049 74.2832 193.631 72.2266Q195.213 70.1699 196.461 68.8516Q197.709 67.5332 198.377 66.7246L198.447 66.6543Q197.814 68.2363 197.129 70.1172Q196.443 71.998 195.811 73.9141Q195.178 75.8301 194.633 77.6582Q194.088 79.4863 193.771 80.9277Q193.771 81.5605 194.299 82.2285Q194.826 82.8965 195.582 83.4414Q196.338 83.9863 197.146 84.3555Q197.955 84.7246 198.482 84.7246Q199.291 84.7246 200.486 84.1621Q201.682 83.5996 203.053 82.6855Q204.424 81.7715 205.883 80.6113Q207.342 79.4512 208.695 78.291Q209.46 77.6356 210.163 76.9972Q210.105 77.1897 210.049 77.377Q209.451 79.3809 209.1 80.9277Q209.1 81.5605 209.627 82.2285Q210.154 82.8965 210.893 83.4414Q211.631 83.9863 212.439 84.3555Q213.248 84.7246 213.775 84.7246Q214.619 84.7246 215.814 84.1621Q217.01 83.5996 218.381 82.6855Q219.752 81.7715 221.211 80.6113Q222.67 79.4512 224.023 78.291Q224.581 77.8134 225.105 77.3445Q225.101 77.3607 225.096 77.377Q224.498 79.3809 224.146 80.9277Q224.146 81.5605 224.674 82.2285Q225.201 82.8965 225.939 83.4414Q226.678 83.9863 227.486 84.3555Q228.295 84.7246 228.822 84.7246Q229.666 84.7246 230.861 84.1621Q232.057 83.5996 233.428 82.6855Q234.799 81.7715 236.258 80.6113Q237.717 79.4512 239.07 78.291Q240.424 77.1309 241.584 76.0234Q242.744 74.916 243.518 74.1426Q243.131 73.7207 242.691 73.2285Q242.252 72.7363 241.936 72.4199Q241.514 72.7715 240.705 73.4746Q239.896 74.1777 238.895 75.0391Q237.893 75.9004 236.803 76.7793Q235.713 77.6582 234.711 78.3965Q233.709 79.1348 232.936 79.5918Q232.162 80.0488 231.775 80.0488Q231.564 80.0488 231.564 79.8379Q231.564 79.4512 231.811 78.6074Q232.057 77.7637 232.443 76.6387Q232.83 75.5137 233.322 74.2305L234.307 71.6641Q234.799 70.3809 235.238 69.1855Q235.678 67.9902 235.959 67.1113Q236.029 66.8652 236.064 66.707Q236.1 66.5488 236.1 66.4434Q236.1 65.916 235.361 65.1953Q234.623 64.4746 233.691 63.8242Q232.76 63.1738 231.916 62.7168Q231.072 62.2598 230.861 62.2598Q230.721 62.2598 230.264 63.209Q229.807 64.1582 229.191 65.7051Q228.576 67.252 227.82 69.2383Q227.179 70.9243 226.588 72.6734Q226.215 72.9906 225.658 73.4746Q224.85 74.1777 223.848 75.0391Q222.846 75.9004 221.756 76.7793Q220.666 77.6582 219.664 78.3965Q218.662 79.1348 217.889 79.5918Q217.115 80.0488 216.729 80.0488Q216.518 80.0488 216.518 79.8379Q216.518 79.4512 216.764 78.6074Q217.01 77.7637 217.396 76.6387Q217.783 75.5137 218.275 74.2305L219.26 71.6641Q219.752 70.3809 220.191 69.1855Q220.631 67.9902 220.912 67.1113Q220.982 66.8652 221.018 66.707Q221.053 66.5488 221.053 66.4434Q221.053 65.916 220.314 65.1953Q219.576 64.4746 218.645 63.8242Q217.713 63.1738 216.869 62.7168Q216.025 62.2598 215.814 62.2598Q215.674 62.2598 215.217 63.209Q214.76 64.1582 214.145 65.7051Q213.529 67.252 212.773 69.2383Q212.17 70.8244 211.611 72.4662Q211.585 72.4422 211.561 72.4199Q211.139 72.7715 210.33 73.4746Q209.521 74.1777 208.52 75.0391Q207.518 75.9004 206.428 76.7793Q205.338 77.6582 204.336 78.3965Q203.334 79.1348 202.561 79.5918Q201.787 80.0488 201.4 80.0488Q201.189 80.0488 201.189 79.8379Q201.189 79.4512 201.436 78.6074Q201.682 77.7637 202.068 76.6387Q202.455 75.5137 202.947 74.2305L203.932 71.6641Q204.424 70.3809 204.863 69.1855Q205.303 67.9902 205.584 67.1113Q205.654 66.8652 205.689 66.707Q205.725 66.5488 205.725 66.4434Q205.725 65.916 205.039 65.2129Q204.354 64.5098 203.422 63.8418Q202.49 63.1738 201.576 62.7168Q200.662 62.2598 200.205 62.2598Q199.818 62.2598 199.133 62.5938Q198.447 62.9277 197.34 63.8418Q196.232 64.7559 194.633 66.3555Q193.033 67.9551 190.818 70.4863Q191.24 69.2559 191.662 68.0957Q192.084 66.9355 192.506 65.8105Q190.959 64.4395 189.148 63.4199Q187.338 62.4004 185.861 61.6973Q184.947 63.7363 184.156 65.9336Q183.365 68.1309 182.697 70.2402Q182.175 71.8903 181.738 73.422L181.678 73.4746Q180.869 74.1777 179.867 75.0391Q178.865 75.9004 177.775 76.7793Q176.686 77.6582 175.684 78.3965Q174.682 79.1348 173.908 79.5918Q173.135 80.0488 172.748 80.0488Q172.537 80.0488 172.537 79.8379Q172.537 79.4512 172.783 78.6074Q173.029 77.7637 173.416 76.6387Q173.803 75.5137 174.295 74.2305L175.279 71.6641Q175.771 70.3809 176.211 69.1855Q176.65 67.9902 176.932 67.1113Q177.002 66.8652 177.037 66.707Q177.072 66.5488 177.072 66.4434Q177.072 65.916 176.334 65.1953Q175.596 64.4746 174.664 63.8242Q173.732 63.1738 172.889 62.7168Q172.045 62.2598 171.834 62.2598Q171.693 62.2598 171.236 63.209Q170.779 64.1582 170.164 65.7051Q169.549 67.252 168.793 69.2383Q168.18 70.8479 167.614 72.515Q167.56 72.4654 167.51 72.4199Q167.088 72.8418 166.35 73.5449Q165.611 74.248 164.68 75.0566Q163.748 75.8652 162.693 76.709Q161.639 77.5527 160.619 78.2383Q159.6 78.9238 158.668 79.3457Q157.736 79.7676 157.068 79.7676ZM172.695 36.7363Q173.557 35.8574 174.154 35.8574Q174.33 35.8574 174.348 36.1738Q174.365 36.4902 174.365 36.7012Q174.365 38.2832 173.311 40.709Q172.256 43.1348 170.463 46.0527Q168.67 48.9707 166.297 52.2227Q163.924 55.4746 161.287 58.709Q162.377 55.791 163.607 52.9434Q164.838 50.0957 166.068 47.5645Q167.299 45.0332 168.494 42.8887Q169.689 40.7441 170.762 39.1797Q171.834 37.6152 172.695 36.7363ZM183.717 51.5371Q183.682 51.6777 183.453 52.2227Q183.225 52.7676 182.908 53.4883Q182.592 54.209 182.188 55Q181.783 55.791 181.396 56.459Q181.01 57.127 180.658 57.5664Q180.307 58.0059 180.096 58.0059Q179.463 57.9707 178.566 57.6191Q177.67 57.2676 176.844 56.8281Q176.018 56.3887 175.438 55.9668Q174.857 55.5449 174.857 55.3691Q174.857 54.6309 175.279 53.4531Q175.701 52.2754 176.264 51.168Q176.826 50.0605 177.406 49.252Q177.986 48.4434 178.303 48.4434Q178.936 48.4434 179.85 48.8477Q180.764 49.252 181.625 49.7793Q182.486 50.3066 183.102 50.8164Q183.717 51.3262 183.717 51.5371ZM227.697 51.5371Q227.662 51.6777 227.434 52.2227Q227.205 52.7676 226.889 53.4883Q226.572 54.209 226.168 55Q225.764 55.791 225.377 56.459Q224.99 57.127 224.639 57.5664Q224.287 58.0059 224.076 58.0059Q223.443 57.9707 222.547 57.6191Q221.65 57.2676 220.824 56.8281Q219.998 56.3887 219.418 55.9668Q218.838 55.5449 218.838 55.3691Q218.838 54.6309 219.26 53.4531Q219.682 52.2754 220.244 51.168Q220.807 50.0605 221.387 49.252Q221.967 48.4434 222.283 48.4434Q222.916 48.4434 223.83 48.8477Q224.744 49.252 225.605 49.7793Q226.467 50.3066 227.082 50.8164Q227.697 51.3262 227.697 51.5371ZM242.48 52.2227Q242.709 51.6777 242.744 51.5371Q242.744 51.3262 242.129 50.8164Q241.514 50.3066 240.652 49.7793Q239.791 49.252 238.877 48.8477Q237.963 48.4434 237.33 48.4434Q237.014 48.4434 236.434 49.252Q235.854 50.0605 235.291 51.168Q234.729 52.2754 234.307 53.4531Q233.885 54.6309 233.885 55.3691Q233.885 55.5449 234.465 55.9668Q235.045 56.3887 235.871 56.8281Q236.697 57.2676 237.594 57.6191Q238.49 57.9707 239.123 58.0059Q239.334 58.0059 239.686 57.5664Q240.037 57.127 240.424 56.459Q240.811 55.791 241.215 55Q241.619 54.209 241.936 53.4883Q242.252 52.7676 242.48 52.2227ZM144.236 76.0586Q141.951 77.6934 140.791 77.6934Q140.369 77.6934 140.369 77.0957Q140.369 76.3223 141.301 74.8281Q142.232 73.334 143.744 71.6113Q145.256 69.8887 147.207 68.1309Q149.158 66.373 151.197 65.002Q150.635 66.7246 150.178 68.3945Q149.721 70.0645 149.404 71.6816Q146.521 74.4238 144.236 76.0586Z" />
    </g>
  </g>
</svg>